<svg xmlns="http://www.w3.org/2000/svg" width="2000" height="500" id="visualization"><rect width="100%" height="100%" fill="rgba(243, 243, 243, 1)"/><text x="70" y="100" style="fill: rgb(240, 52, 52); font-size: 14px; font-weight: bold;">.</text><text x="1355.2" y="100" style="fill: rgb(240, 52, 52); font-size: 14px; font-weight: bold;">.</text><path d="M542.5,100L542.5,230.5L485.9314575050762,286.5685424949238L485.9314575050762,156.0685424949238Z" style="stroke: rgb(22, 22, 22); stroke-width: 0.25; fill: rgb(243, 243, 243); stroke-dasharray: 2, 2; stroke-linejoin: round;"/><path d="M548.8,100L548.8,230.5L492.23145750507615,286.5685424949238L492.23145750507615,156.0685424949238Z" style="stroke: rgb(240, 52, 52); stroke-width: 1.09953; fill: rgb(243, 243, 243); stroke-dasharray: none; stroke-linejoin: round;"/><path d="M574,100L574,230.5L517.4314575050762,286.5685424949238L517.4314575050762,156.0685424949238Z" style="stroke: rgb(22, 22, 22); stroke-width: 0.25; fill: rgb(243, 243, 243); stroke-dasharray: 2, 2; stroke-linejoin: round;"/><circle cx="517.4314575050762" cy="296.5685424949238" r="2.5" style="fill: rgb(22, 22, 22);"/><path d="M794.5,100L794.5,230.5L737.9314575050762,286.5685424949238L737.9314575050762,156.0685424949238Z" style="stroke: rgb(22, 22, 22); stroke-width: 0.25; fill: rgb(243, 243, 243); stroke-dasharray: 2, 2; stroke-linejoin: round;"/><path d="M800.8,100L800.8,230.5L744.2314575050762,286.5685424949238L744.2314575050762,156.0685424949238Z" style="stroke: rgb(22, 22, 22); stroke-width: 0.25; fill: rgb(243, 243, 243); stroke-dasharray: 2, 2; stroke-linejoin: round;"/><path d="M807.1,100L807.1,230.5L750.5314575050762,286.5685424949238L750.5314575050762,156.0685424949238Z" style="stroke: rgb(240, 52, 52); stroke-width: 0.5; fill: rgb(243, 243, 243); stroke-dasharray: none; stroke-linejoin: round;"/><path d="M813.4,100L813.4,230.5L756.8314575050762,286.5685424949238L756.8314575050762,156.0685424949238Z" style="stroke: rgb(22, 22, 22); stroke-width: 0.25; fill: rgb(243, 243, 243); stroke-dasharray: 2, 2; stroke-linejoin: round;"/><path d="M819.6999999999999,100L819.6999999999999,230.5L763.1314575050761,286.5685424949238L763.1314575050761,156.0685424949238Z" style="stroke: rgb(22, 22, 22); stroke-width: 0.25; fill: rgb(243, 243, 243); stroke-dasharray: 2, 2; stroke-linejoin: round;"/><circle cx="763.1314575050761" cy="296.5685424949238" r="2.5" style="fill: rgb(22, 22, 22);"/><path d="M826,100L826,230.5L769.4314575050762,286.5685424949238L769.4314575050762,156.0685424949238Z" style="stroke: rgb(22, 22, 22); stroke-width: 0.25; fill: rgb(243, 243, 243); stroke-dasharray: 2, 2; stroke-linejoin: round;"/><path d="M832.3,100L832.3,230.5L775.7314575050762,286.5685424949238L775.7314575050762,156.0685424949238Z" style="stroke: rgb(22, 22, 22); stroke-width: 0.25; fill: rgb(243, 243, 243); stroke-dasharray: 2, 2; stroke-linejoin: round;"/><path d="M838.6,100L838.6,230.5L782.0314575050762,286.5685424949238L782.0314575050762,156.0685424949238Z" style="stroke: rgb(22, 22, 22); stroke-width: 0.25; fill: rgb(243, 243, 243); stroke-dasharray: 2, 2; stroke-linejoin: round;"/><circle cx="782.0314575050762" cy="296.5685424949238" r="2.5" style="fill: rgb(22, 22, 22);"/><path d="M848.05,100L848.05,230.5L791.4814575050762,286.5685424949238L791.4814575050762,156.0685424949238Z" style="stroke: rgb(22, 22, 22); stroke-width: 0.25; fill: rgb(243, 243, 243); stroke-dasharray: 2, 2; stroke-linejoin: round;"/><path d="M851.1999999999999,100L851.1999999999999,230.5L794.6314575050761,286.5685424949238L794.6314575050761,156.0685424949238Z" style="stroke: rgb(22, 22, 22); stroke-width: 0.25; fill: rgb(243, 243, 243); stroke-dasharray: 2, 2; stroke-linejoin: round;"/><path d="M857.5,100L857.5,230.5L800.9314575050762,286.5685424949238L800.9314575050762,156.0685424949238Z" style="stroke: rgb(240, 52, 52); stroke-width: 1.09953; fill: rgb(243, 243, 243); stroke-dasharray: none; stroke-linejoin: round;"/><path d="M860.65,100L860.65,230.5L804.0814575050762,286.5685424949238L804.0814575050762,156.0685424949238Z" style="stroke: rgb(22, 22, 22); stroke-width: 0.25; fill: rgb(243, 243, 243); stroke-dasharray: 2, 2; stroke-linejoin: round;"/><circle cx="804.0814575050762" cy="296.5685424949238" r="2.5" style="fill: rgb(22, 22, 22);"/><path d="M863.8,100L863.8,230.5L807.2314575050762,286.5685424949238L807.2314575050762,156.0685424949238Z" style="stroke: rgb(22, 22, 22); stroke-width: 0.25; fill: rgb(243, 243, 243); stroke-dasharray: 2, 2; stroke-linejoin: round;"/><path d="M873.25,100L873.25,230.5L816.6814575050762,286.5685424949238L816.6814575050762,156.0685424949238Z" style="stroke: rgb(22, 22, 22); stroke-width: 0.25; fill: rgb(243, 243, 243); stroke-dasharray: 2, 2; stroke-linejoin: round;"/><path d="M876.4,100L876.4,230.5L819.8314575050762,286.5685424949238L819.8314575050762,156.0685424949238Z" style="stroke: rgb(240, 52, 52); stroke-width: 0.5; fill: rgb(243, 243, 243); stroke-dasharray: none; stroke-linejoin: round;"/><circle cx="819.8314575050762" cy="296.5685424949238" r="2.5" style="fill: rgb(22, 22, 22);"/><path d="M882.6999999999999,100L882.6999999999999,230.5L826.1314575050761,286.5685424949238L826.1314575050761,156.0685424949238Z" style="stroke: rgb(22, 22, 22); stroke-width: 0.25; fill: rgb(243, 243, 243); stroke-dasharray: 2, 2; stroke-linejoin: round;"/><path d="M885.85,100L885.85,230.5L829.2814575050762,286.5685424949238L829.2814575050762,156.0685424949238Z" style="stroke: rgb(22, 22, 22); stroke-width: 0.25; fill: rgb(243, 243, 243); stroke-dasharray: 2, 2; stroke-linejoin: round;"/><path d="M889,100L889,230.5L832.4314575050762,286.5685424949238L832.4314575050762,156.0685424949238Z" style="stroke: rgb(22, 22, 22); stroke-width: 0.25; fill: rgb(243, 243, 243); stroke-dasharray: 2, 2; stroke-linejoin: round;"/><path d="M895.3,100L895.3,230.5L838.7314575050762,286.5685424949238L838.7314575050762,156.0685424949238Z" style="stroke: rgb(22, 22, 22); stroke-width: 0.25; fill: rgb(243, 243, 243); stroke-dasharray: 2, 2; stroke-linejoin: round;"/><path d="M898.4499999999999,100L898.4499999999999,230.5L841.8814575050761,286.5685424949238L841.8814575050761,156.0685424949238Z" style="stroke: rgb(22, 22, 22); stroke-width: 0.25; fill: rgb(243, 243, 243); stroke-dasharray: 2, 2; stroke-linejoin: round;"/><path d="M901.6,100L901.6,230.5L845.0314575050762,286.5685424949238L845.0314575050762,156.0685424949238Z" style="stroke: rgb(22, 22, 22); stroke-width: 0.25; fill: rgb(243, 243, 243); stroke-dasharray: 2, 2; stroke-linejoin: round;"/><path d="M907.9,100L907.9,230.5L851.3314575050762,286.5685424949238L851.3314575050762,156.0685424949238Z" style="stroke: rgb(22, 22, 22); stroke-width: 0.25; fill: rgb(243, 243, 243); stroke-dasharray: 2, 2; stroke-linejoin: round;"/><path d="M911.05,100L911.05,230.5L854.4814575050762,286.5685424949238L854.4814575050762,156.0685424949238Z" style="stroke: rgb(22, 22, 22); stroke-width: 0.25; fill: rgb(243, 243, 243); stroke-dasharray: 2, 2; stroke-linejoin: round;"/><circle cx="854.4814575050762" cy="296.5685424949238" r="2.5" style="fill: rgb(22, 22, 22);"/><path d="M914.1999999999999,100L914.1999999999999,230.5L857.6314575050761,286.5685424949238L857.6314575050761,156.0685424949238Z" style="stroke: rgb(240, 52, 52); stroke-width: 0.5; fill: rgb(243, 243, 243); stroke-dasharray: none; stroke-linejoin: round;"/><path d="M920.5,100L920.5,230.5L863.9314575050762,286.5685424949238L863.9314575050762,156.0685424949238Z" style="stroke: rgb(22, 22, 22); stroke-width: 0.25; fill: rgb(243, 243, 243); stroke-dasharray: 2, 2; stroke-linejoin: round;"/><path d="M923.65,100L923.65,230.5L867.0814575050762,286.5685424949238L867.0814575050762,156.0685424949238Z" style="stroke: rgb(22, 22, 22); stroke-width: 0.25; fill: rgb(243, 243, 243); stroke-dasharray: 2, 2; stroke-linejoin: round;"/><path d="M926.8,100L926.8,230.5L870.2314575050762,286.5685424949238L870.2314575050762,156.0685424949238Z" style="stroke: rgb(22, 22, 22); stroke-width: 0.25; fill: rgb(243, 243, 243); stroke-dasharray: 2, 2; stroke-linejoin: round;"/><path d="M933.1,100L933.1,230.5L876.5314575050762,286.5685424949238L876.5314575050762,156.0685424949238Z" style="stroke: rgb(22, 22, 22); stroke-width: 0.25; fill: rgb(243, 243, 243); stroke-dasharray: 2, 2; stroke-linejoin: round;"/><path d="M939.4,100L939.4,230.5L882.8314575050762,286.5685424949238L882.8314575050762,156.0685424949238Z" style="stroke: rgb(22, 22, 22); stroke-width: 0.25; fill: rgb(243, 243, 243); stroke-dasharray: 2, 2; stroke-linejoin: round;"/><path d="M945.6999999999999,100L945.6999999999999,230.5L889.1314575050761,286.5685424949238L889.1314575050761,156.0685424949238Z" style="stroke: rgb(22, 22, 22); stroke-width: 0.25; fill: rgb(243, 243, 243); stroke-dasharray: 2, 2; stroke-linejoin: round;"/><path d="M948.85,100L948.85,230.5L892.2814575050762,286.5685424949238L892.2814575050762,156.0685424949238Z" style="stroke: rgb(22, 22, 22); stroke-width: 0.25; fill: rgb(243, 243, 243); stroke-dasharray: 2, 2; stroke-linejoin: round;"/><path d="M952,100L952,230.5L895.4314575050762,286.5685424949238L895.4314575050762,156.0685424949238Z" style="stroke: rgb(22, 22, 22); stroke-width: 0.25; fill: rgb(243, 243, 243); stroke-dasharray: 2, 2; stroke-linejoin: round;"/><path d="M958.3,100L958.3,230.5L901.7314575050762,286.5685424949238L901.7314575050762,156.0685424949238Z" style="stroke: rgb(22, 22, 22); stroke-width: 0.25; fill: rgb(243, 243, 243); stroke-dasharray: 2, 2; stroke-linejoin: round;"/><path d="M961.4499999999999,100L961.4499999999999,230.5L904.8814575050761,286.5685424949238L904.8814575050761,156.0685424949238Z" style="stroke: rgb(22, 22, 22); stroke-width: 0.25; fill: rgb(243, 243, 243); stroke-dasharray: 2, 2; stroke-linejoin: round;"/><path d="M964.6,100L964.6,230.5L908.0314575050762,286.5685424949238L908.0314575050762,156.0685424949238Z" style="stroke: rgb(240, 52, 52); stroke-width: 0.5; fill: rgb(243, 243, 243); stroke-dasharray: none; stroke-linejoin: round;"/><path d="M970.9,100L970.9,230.5L914.3314575050762,286.5685424949238L914.3314575050762,156.0685424949238Z" style="stroke: rgb(240, 52, 52); stroke-width: 0.5; fill: rgb(243, 243, 243); stroke-dasharray: none; stroke-linejoin: round;"/><path d="M974.05,100L974.05,230.5L917.4814575050762,286.5685424949238L917.4814575050762,156.0685424949238Z" style="stroke: rgb(22, 22, 22); stroke-width: 0.25; fill: rgb(243, 243, 243); stroke-dasharray: 2, 2; stroke-linejoin: round;"/><path d="M977.1999999999999,100L977.1999999999999,230.5L920.6314575050761,286.5685424949238L920.6314575050761,156.0685424949238Z" style="stroke: rgb(22, 22, 22); stroke-width: 0.25; fill: rgb(243, 243, 243); stroke-dasharray: 2, 2; stroke-linejoin: round;"/><path d="M983.5,100L983.5,230.5L926.9314575050762,286.5685424949238L926.9314575050762,156.0685424949238Z" style="stroke: rgb(22, 22, 22); stroke-width: 0.25; fill: rgb(243, 243, 243); stroke-dasharray: 2, 2; stroke-linejoin: round;"/><path d="M986.65,100L986.65,230.5L930.0814575050762,286.5685424949238L930.0814575050762,156.0685424949238Z" style="stroke: rgb(22, 22, 22); stroke-width: 0.25; fill: rgb(243, 243, 243); stroke-dasharray: 2, 2; stroke-linejoin: round;"/><path d="M989.8,100L989.8,230.5L933.2314575050762,286.5685424949238L933.2314575050762,156.0685424949238Z" style="stroke: rgb(22, 22, 22); stroke-width: 0.25; fill: rgb(243, 243, 243); stroke-dasharray: 2, 2; stroke-linejoin: round;"/><path d="M996.1,100L996.1,230.5L939.5314575050762,286.5685424949238L939.5314575050762,156.0685424949238Z" style="stroke: rgb(22, 22, 22); stroke-width: 0.25; fill: rgb(243, 243, 243); stroke-dasharray: 2, 2; stroke-linejoin: round;"/><path d="M999.25,100L999.25,230.5L942.6814575050762,286.5685424949238L942.6814575050762,156.0685424949238Z" style="stroke: rgb(22, 22, 22); stroke-width: 0.25; fill: rgb(243, 243, 243); stroke-dasharray: 2, 2; stroke-linejoin: round;"/><path d="M1002.4,100L1002.4,230.5L945.8314575050762,286.5685424949238L945.8314575050762,156.0685424949238Z" style="stroke: rgb(22, 22, 22); stroke-width: 0.25; fill: rgb(243, 243, 243); stroke-dasharray: 2, 2; stroke-linejoin: round;"/><path d="M1008.6999999999999,100L1008.6999999999999,230.5L952.1314575050761,286.5685424949238L952.1314575050761,156.0685424949238Z" style="stroke: rgb(22, 22, 22); stroke-width: 0.25; fill: rgb(243, 243, 243); stroke-dasharray: 2, 2; stroke-linejoin: round;"/><path d="M1015,100L1015,230.5L958.4314575050762,286.5685424949238L958.4314575050762,156.0685424949238Z" style="stroke: rgb(22, 22, 22); stroke-width: 0.25; fill: rgb(243, 243, 243); stroke-dasharray: 2, 2; stroke-linejoin: round;"/><path d="M1021.3,100L1021.3,230.5L964.7314575050762,286.5685424949238L964.7314575050762,156.0685424949238Z" style="stroke: rgb(22, 22, 22); stroke-width: 0.25; fill: rgb(243, 243, 243); stroke-dasharray: 2, 2; stroke-linejoin: round;"/><path d="M1024.4499999999998,100L1024.4499999999998,230.5L967.881457505076,286.5685424949238L967.881457505076,156.0685424949238Z" style="stroke: rgb(22, 22, 22); stroke-width: 0.25; fill: rgb(243, 243, 243); stroke-dasharray: 2, 2; stroke-linejoin: round;"/><path d="M1027.6,100L1027.6,230.5L971.0314575050761,286.5685424949238L971.0314575050761,156.0685424949238Z" style="stroke: rgb(22, 22, 22); stroke-width: 0.25; fill: rgb(243, 243, 243); stroke-dasharray: 2, 2; stroke-linejoin: round;"/><path d="M1033.9,100L1033.9,230.5L977.3314575050763,286.5685424949238L977.3314575050763,156.0685424949238Z" style="stroke: rgb(22, 22, 22); stroke-width: 0.25; fill: rgb(243, 243, 243); stroke-dasharray: 2, 2; stroke-linejoin: round;"/><path d="M1037.05,100L1037.05,230.5L980.4814575050762,286.5685424949238L980.4814575050762,156.0685424949238Z" style="stroke: rgb(22, 22, 22); stroke-width: 0.25; fill: rgb(243, 243, 243); stroke-dasharray: 2, 2; stroke-linejoin: round;"/><path d="M1040.1999999999998,100L1040.1999999999998,230.5L983.631457505076,286.5685424949238L983.631457505076,156.0685424949238Z" style="stroke: rgb(22, 22, 22); stroke-width: 0.25; fill: rgb(243, 243, 243); stroke-dasharray: 2, 2; stroke-linejoin: round;"/><path d="M1046.5,100L1046.5,230.5L989.9314575050762,286.5685424949238L989.9314575050762,156.0685424949238Z" style="stroke: rgb(240, 52, 52); stroke-width: 0.5; fill: rgb(243, 243, 243); stroke-dasharray: none; stroke-linejoin: round;"/><circle cx="989.9314575050762" cy="296.5685424949238" r="2.5" style="fill: rgb(22, 22, 22);"/><path d="M1049.65,100L1049.65,230.5L993.0814575050763,286.5685424949238L993.0814575050763,156.0685424949238Z" style="stroke: rgb(22, 22, 22); stroke-width: 0.25; fill: rgb(243, 243, 243); stroke-dasharray: 2, 2; stroke-linejoin: round;"/><path d="M1052.8,100L1052.8,230.5L996.2314575050762,286.5685424949238L996.2314575050762,156.0685424949238Z" style="stroke: rgb(22, 22, 22); stroke-width: 0.25; fill: rgb(243, 243, 243); stroke-dasharray: 2, 2; stroke-linejoin: round;"/><path d="M1059.1,100L1059.1,230.5L1002.5314575050761,286.5685424949238L1002.5314575050761,156.0685424949238Z" style="stroke: rgb(22, 22, 22); stroke-width: 0.25; fill: rgb(243, 243, 243); stroke-dasharray: 2, 2; stroke-linejoin: round;"/><path d="M1062.25,100L1062.25,230.5L1005.6814575050762,286.5685424949238L1005.6814575050762,156.0685424949238Z" style="stroke: rgb(22, 22, 22); stroke-width: 0.25; fill: rgb(243, 243, 243); stroke-dasharray: 2, 2; stroke-linejoin: round;"/><path d="M1065.4,100L1065.4,230.5L1008.8314575050763,286.5685424949238L1008.8314575050763,156.0685424949238Z" style="stroke: rgb(22, 22, 22); stroke-width: 0.25; fill: rgb(243, 243, 243); stroke-dasharray: 2, 2; stroke-linejoin: round;"/><path d="M1071.6999999999998,100L1071.6999999999998,230.5L1015.131457505076,286.5685424949238L1015.131457505076,156.0685424949238Z" style="stroke: rgb(22, 22, 22); stroke-width: 0.25; fill: rgb(243, 243, 243); stroke-dasharray: 2, 2; stroke-linejoin: round;"/><path d="M1074.85,100L1074.85,230.5L1018.2814575050761,286.5685424949238L1018.2814575050761,156.0685424949238Z" style="stroke: rgb(22, 22, 22); stroke-width: 0.25; fill: rgb(243, 243, 243); stroke-dasharray: 2, 2; stroke-linejoin: round;"/><path d="M1078,100L1078,230.5L1021.4314575050762,286.5685424949238L1021.4314575050762,156.0685424949238Z" style="stroke: rgb(22, 22, 22); stroke-width: 0.25; fill: rgb(243, 243, 243); stroke-dasharray: 2, 2; stroke-linejoin: round;"/><path d="M1084.3,100L1084.3,230.5L1027.7314575050762,286.5685424949238L1027.7314575050762,156.0685424949238Z" style="stroke: rgb(22, 22, 22); stroke-width: 0.25; fill: rgb(243, 243, 243); stroke-dasharray: 2, 2; stroke-linejoin: round;"/><path d="M1087.4499999999998,100L1087.4499999999998,230.5L1030.881457505076,286.5685424949238L1030.881457505076,156.0685424949238Z" style="stroke: rgb(22, 22, 22); stroke-width: 0.25; fill: rgb(243, 243, 243); stroke-dasharray: 2, 2; stroke-linejoin: round;"/><path d="M1090.6,100L1090.6,230.5L1034.031457505076,286.5685424949238L1034.031457505076,156.0685424949238Z" style="stroke: rgb(22, 22, 22); stroke-width: 0.25; fill: rgb(243, 243, 243); stroke-dasharray: 2, 2; stroke-linejoin: round;"/><path d="M1096.8999999999999,100L1096.8999999999999,230.5L1040.331457505076,286.5685424949238L1040.331457505076,156.0685424949238Z" style="stroke: rgb(22, 22, 22); stroke-width: 0.25; fill: rgb(243, 243, 243); stroke-dasharray: 2, 2; stroke-linejoin: round;"/><path d="M1100.05,100L1100.05,230.5L1043.4814575050762,286.5685424949238L1043.4814575050762,156.0685424949238Z" style="stroke: rgb(22, 22, 22); stroke-width: 0.25; fill: rgb(243, 243, 243); stroke-dasharray: 2, 2; stroke-linejoin: round;"/><path d="M1103.2,100L1103.2,230.5L1046.6314575050762,286.5685424949238L1046.6314575050762,156.0685424949238Z" style="stroke: rgb(22, 22, 22); stroke-width: 0.25; fill: rgb(243, 243, 243); stroke-dasharray: 2, 2; stroke-linejoin: round;"/><path d="M1109.5,100L1109.5,230.5L1052.9314575050762,286.5685424949238L1052.9314575050762,156.0685424949238Z" style="stroke: rgb(240, 52, 52); stroke-width: 0.5; fill: rgb(243, 243, 243); stroke-dasharray: none; stroke-linejoin: round;"/><path d="M1112.6499999999999,100L1112.6499999999999,230.5L1056.081457505076,286.5685424949238L1056.081457505076,156.0685424949238Z" style="stroke: rgb(22, 22, 22); stroke-width: 0.25; fill: rgb(243, 243, 243); stroke-dasharray: 2, 2; stroke-linejoin: round;"/><path d="M1115.8,100L1115.8,230.5L1059.2314575050762,286.5685424949238L1059.2314575050762,156.0685424949238Z" style="stroke: rgb(22, 22, 22); stroke-width: 0.25; fill: rgb(243, 243, 243); stroke-dasharray: 2, 2; stroke-linejoin: round;"/><path d="M1122.1,100L1122.1,230.5L1065.531457505076,286.5685424949238L1065.531457505076,156.0685424949238Z" style="stroke: rgb(22, 22, 22); stroke-width: 0.25; fill: rgb(243, 243, 243); stroke-dasharray: 2, 2; stroke-linejoin: round;"/><path d="M1125.25,100L1125.25,230.5L1068.6814575050762,286.5685424949238L1068.6814575050762,156.0685424949238Z" style="stroke: rgb(22, 22, 22); stroke-width: 0.25; fill: rgb(243, 243, 243); stroke-dasharray: 2, 2; stroke-linejoin: round;"/><path d="M1128.3999999999999,100L1128.3999999999999,230.5L1071.831457505076,286.5685424949238L1071.831457505076,156.0685424949238Z" style="stroke: rgb(22, 22, 22); stroke-width: 0.25; fill: rgb(243, 243, 243); stroke-dasharray: 2, 2; stroke-linejoin: round;"/><path d="M1134.7,100L1134.7,230.5L1078.1314575050762,286.5685424949238L1078.1314575050762,156.0685424949238Z" style="stroke: rgb(22, 22, 22); stroke-width: 0.25; fill: rgb(243, 243, 243); stroke-dasharray: 2, 2; stroke-linejoin: round;"/><path d="M1141,100L1141,230.5L1084.4314575050762,286.5685424949238L1084.4314575050762,156.0685424949238Z" style="stroke: rgb(22, 22, 22); stroke-width: 0.25; fill: rgb(243, 243, 243); stroke-dasharray: 2, 2; stroke-linejoin: round;"/><path d="M1147.3,100L1147.3,230.5L1090.7314575050762,286.5685424949238L1090.7314575050762,156.0685424949238Z" style="stroke: rgb(240, 52, 52); stroke-width: 2.04977; fill: rgb(243, 243, 243); stroke-dasharray: none; stroke-linejoin: round;"/><path d="M1150.45,100L1150.45,230.5L1093.8814575050762,286.5685424949238L1093.8814575050762,156.0685424949238Z" style="stroke: rgb(240, 52, 52); stroke-width: 0.5; fill: rgb(243, 243, 243); stroke-dasharray: none; stroke-linejoin: round;"/><path d="M1153.6,100L1153.6,230.5L1097.031457505076,286.5685424949238L1097.031457505076,156.0685424949238Z" style="stroke: rgb(22, 22, 22); stroke-width: 0.25; fill: rgb(243, 243, 243); stroke-dasharray: 2, 2; stroke-linejoin: round;"/><path d="M1159.8999999999999,100L1159.8999999999999,230.5L1103.331457505076,286.5685424949238L1103.331457505076,156.0685424949238Z" style="stroke: rgb(240, 52, 52); stroke-width: 0.5; fill: rgb(243, 243, 243); stroke-dasharray: none; stroke-linejoin: round;"/><path d="M1166.2,100L1166.2,230.5L1109.6314575050762,286.5685424949238L1109.6314575050762,156.0685424949238Z" style="stroke: rgb(22, 22, 22); stroke-width: 0.25; fill: rgb(243, 243, 243); stroke-dasharray: 2, 2; stroke-linejoin: round;"/><path d="M1172.5,100L1172.5,230.5L1115.9314575050762,286.5685424949238L1115.9314575050762,156.0685424949238Z" style="stroke: rgb(240, 52, 52); stroke-width: 1.09953; fill: rgb(243, 243, 243); stroke-dasharray: none; stroke-linejoin: round;"/><path d="M1175.6499999999999,100L1175.6499999999999,230.5L1119.081457505076,286.5685424949238L1119.081457505076,156.0685424949238Z" style="stroke: rgb(22, 22, 22); stroke-width: 0.25; fill: rgb(243, 243, 243); stroke-dasharray: 2, 2; stroke-linejoin: round;"/><path d="M1178.8,100L1178.8,230.5L1122.2314575050762,286.5685424949238L1122.2314575050762,156.0685424949238Z" style="stroke: rgb(22, 22, 22); stroke-width: 0.25; fill: rgb(243, 243, 243); stroke-dasharray: 2, 2; stroke-linejoin: round;"/><path d="M1185.1,100L1185.1,230.5L1128.531457505076,286.5685424949238L1128.531457505076,156.0685424949238Z" style="stroke: rgb(22, 22, 22); stroke-width: 0.25; fill: rgb(243, 243, 243); stroke-dasharray: 2, 2; stroke-linejoin: round;"/><path d="M1188.25,100L1188.25,230.5L1131.6814575050762,286.5685424949238L1131.6814575050762,156.0685424949238Z" style="stroke: rgb(22, 22, 22); stroke-width: 0.25; fill: rgb(243, 243, 243); stroke-dasharray: 2, 2; stroke-linejoin: round;"/><circle cx="1131.6814575050762" cy="296.5685424949238" r="2.5" style="fill: rgb(22, 22, 22);"/><path d="M1191.3999999999999,100L1191.3999999999999,230.5L1134.831457505076,286.5685424949238L1134.831457505076,156.0685424949238Z" style="stroke: rgb(22, 22, 22); stroke-width: 0.25; fill: rgb(243, 243, 243); stroke-dasharray: 2, 2; stroke-linejoin: round;"/><path d="M1197.7,100L1197.7,230.5L1141.1314575050762,286.5685424949238L1141.1314575050762,156.0685424949238Z" style="stroke: rgb(22, 22, 22); stroke-width: 0.25; fill: rgb(243, 243, 243); stroke-dasharray: 2, 2; stroke-linejoin: round;"/><path d="M1200.85,100L1200.85,230.5L1144.281457505076,286.5685424949238L1144.281457505076,156.0685424949238Z" style="stroke: rgb(22, 22, 22); stroke-width: 0.25; fill: rgb(243, 243, 243); stroke-dasharray: 2, 2; stroke-linejoin: round;"/><path d="M1204,100L1204,230.5L1147.4314575050762,286.5685424949238L1147.4314575050762,156.0685424949238Z" style="stroke: rgb(22, 22, 22); stroke-width: 0.25; fill: rgb(243, 243, 243); stroke-dasharray: 2, 2; stroke-linejoin: round;"/><path d="M1210.3,100L1210.3,230.5L1153.7314575050762,286.5685424949238L1153.7314575050762,156.0685424949238Z" style="stroke: rgb(240, 52, 52); stroke-width: 0.5; fill: rgb(243, 243, 243); stroke-dasharray: none; stroke-linejoin: round;"/><circle cx="1153.7314575050762" cy="296.5685424949238" r="2.5" style="fill: rgb(22, 22, 22);"/><path d="M1216.6,100L1216.6,230.5L1160.031457505076,286.5685424949238L1160.031457505076,156.0685424949238Z" style="stroke: rgb(22, 22, 22); stroke-width: 0.25; fill: rgb(243, 243, 243); stroke-dasharray: 2, 2; stroke-linejoin: round;"/><path d="M1222.8999999999999,100L1222.8999999999999,230.5L1166.331457505076,286.5685424949238L1166.331457505076,156.0685424949238Z" style="stroke: rgb(22, 22, 22); stroke-width: 0.25; fill: rgb(243, 243, 243); stroke-dasharray: 2, 2; stroke-linejoin: round;"/><path d="M1226.05,100L1226.05,230.5L1169.4814575050762,286.5685424949238L1169.4814575050762,156.0685424949238Z" style="stroke: rgb(22, 22, 22); stroke-width: 0.25; fill: rgb(243, 243, 243); stroke-dasharray: 2, 2; stroke-linejoin: round;"/><path d="M1229.2,100L1229.2,230.5L1172.6314575050762,286.5685424949238L1172.6314575050762,156.0685424949238Z" style="stroke: rgb(22, 22, 22); stroke-width: 0.25; fill: rgb(243, 243, 243); stroke-dasharray: 2, 2; stroke-linejoin: round;"/><path d="M1235.5,100L1235.5,230.5L1178.9314575050762,286.5685424949238L1178.9314575050762,156.0685424949238Z" style="stroke: rgb(22, 22, 22); stroke-width: 0.25; fill: rgb(243, 243, 243); stroke-dasharray: 2, 2; stroke-linejoin: round;"/><path d="M1238.6499999999999,100L1238.6499999999999,230.5L1182.081457505076,286.5685424949238L1182.081457505076,156.0685424949238Z" style="stroke: rgb(22, 22, 22); stroke-width: 0.25; fill: rgb(243, 243, 243); stroke-dasharray: 2, 2; stroke-linejoin: round;"/><path d="M1241.8,100L1241.8,230.5L1185.2314575050762,286.5685424949238L1185.2314575050762,156.0685424949238Z" style="stroke: rgb(240, 52, 52); stroke-width: 1.09953; fill: rgb(243, 243, 243); stroke-dasharray: none; stroke-linejoin: round;"/><path d="M1248.1,100L1248.1,230.5L1191.531457505076,286.5685424949238L1191.531457505076,156.0685424949238Z" style="stroke: rgb(240, 52, 52); stroke-width: 1.45023; fill: rgb(243, 243, 243); stroke-dasharray: none; stroke-linejoin: round;"/><path d="M1254.3999999999999,100L1254.3999999999999,230.5L1197.831457505076,286.5685424949238L1197.831457505076,156.0685424949238Z" style="stroke: rgb(22, 22, 22); stroke-width: 0.25; fill: rgb(243, 243, 243); stroke-dasharray: 2, 2; stroke-linejoin: round;"/><path d="M1260.7,100L1260.7,230.5L1204.1314575050762,286.5685424949238L1204.1314575050762,156.0685424949238Z" style="stroke: rgb(22, 22, 22); stroke-width: 0.25; fill: rgb(243, 243, 243); stroke-dasharray: 2, 2; stroke-linejoin: round;"/><path d="M1267,100L1267,230.5L1210.4314575050762,286.5685424949238L1210.4314575050762,156.0685424949238Z" style="stroke: rgb(22, 22, 22); stroke-width: 0.25; fill: rgb(243, 243, 243); stroke-dasharray: 2, 2; stroke-linejoin: round;"/><path d="M1273.3,100L1273.3,230.5L1216.7314575050762,286.5685424949238L1216.7314575050762,156.0685424949238Z" style="stroke: rgb(240, 52, 52); stroke-width: 0.5; fill: rgb(243, 243, 243); stroke-dasharray: none; stroke-linejoin: round;"/><path d="M1279.6,100L1279.6,230.5L1223.031457505076,286.5685424949238L1223.031457505076,156.0685424949238Z" style="stroke: rgb(22, 22, 22); stroke-width: 0.25; fill: rgb(243, 243, 243); stroke-dasharray: 2, 2; stroke-linejoin: round;"/><path d="M1285.8999999999999,100L1285.8999999999999,230.5L1229.331457505076,286.5685424949238L1229.331457505076,156.0685424949238Z" style="stroke: rgb(240, 52, 52); stroke-width: 0.5; fill: rgb(243, 243, 243); stroke-dasharray: none; stroke-linejoin: round;"/><path d="M1292.2,100L1292.2,230.5L1235.6314575050762,286.5685424949238L1235.6314575050762,156.0685424949238Z" style="stroke: rgb(240, 52, 52); stroke-width: 0.5; fill: rgb(243, 243, 243); stroke-dasharray: none; stroke-linejoin: round;"/><path d="M1298.5,100L1298.5,230.5L1241.9314575050762,286.5685424949238L1241.9314575050762,156.0685424949238Z" style="stroke: rgb(240, 52, 52); stroke-width: 1.09953; fill: rgb(243, 243, 243); stroke-dasharray: none; stroke-linejoin: round;"/><path d="M1301.6499999999999,100L1301.6499999999999,230.5L1245.081457505076,286.5685424949238L1245.081457505076,156.0685424949238Z" style="stroke: rgb(22, 22, 22); stroke-width: 0.25; fill: rgb(243, 243, 243); stroke-dasharray: 2, 2; stroke-linejoin: round;"/><path d="M1304.8,100L1304.8,230.5L1248.2314575050762,286.5685424949238L1248.2314575050762,156.0685424949238Z" style="stroke: rgb(22, 22, 22); stroke-width: 0.25; fill: rgb(243, 243, 243); stroke-dasharray: 2, 2; stroke-linejoin: round;"/><path d="M1311.1,100L1311.1,230.5L1254.531457505076,286.5685424949238L1254.531457505076,156.0685424949238Z" style="stroke: rgb(22, 22, 22); stroke-width: 0.25; fill: rgb(243, 243, 243); stroke-dasharray: 2, 2; stroke-linejoin: round;"/><path d="M1314.25,100L1314.25,230.5L1257.6814575050762,286.5685424949238L1257.6814575050762,156.0685424949238Z" style="stroke: rgb(22, 22, 22); stroke-width: 0.25; fill: rgb(243, 243, 243); stroke-dasharray: 2, 2; stroke-linejoin: round;"/><path d="M1323.7,100L1323.7,230.5L1267.1314575050762,286.5685424949238L1267.1314575050762,156.0685424949238Z" style="stroke: rgb(22, 22, 22); stroke-width: 0.25; fill: rgb(243, 243, 243); stroke-dasharray: 2, 2; stroke-linejoin: round;"/><path d="M1326.85,100L1326.85,230.5L1270.281457505076,286.5685424949238L1270.281457505076,156.0685424949238Z" style="stroke: rgb(22, 22, 22); stroke-width: 0.25; fill: rgb(243, 243, 243); stroke-dasharray: 2, 2; stroke-linejoin: round;"/><circle cx="1270.281457505076" cy="296.5685424949238" r="2.5" style="fill: rgb(22, 22, 22);"/><path d="M1330,100L1330,230.5L1273.4314575050762,286.5685424949238L1273.4314575050762,156.0685424949238Z" style="stroke: rgb(22, 22, 22); stroke-width: 0.25; fill: rgb(243, 243, 243); stroke-dasharray: 2, 2; stroke-linejoin: round;"/><path d="M1336.3,100L1336.3,230.5L1279.7314575050762,286.5685424949238L1279.7314575050762,156.0685424949238Z" style="stroke: rgb(22, 22, 22); stroke-width: 0.25; fill: rgb(243, 243, 243); stroke-dasharray: 2, 2; stroke-linejoin: round;"/><path d="M1339.45,100L1339.45,230.5L1282.8814575050762,286.5685424949238L1282.8814575050762,156.0685424949238Z" style="stroke: rgb(22, 22, 22); stroke-width: 0.25; fill: rgb(243, 243, 243); stroke-dasharray: 2, 2; stroke-linejoin: round;"/><path d="M1342.6,100L1342.6,230.5L1286.031457505076,286.5685424949238L1286.031457505076,156.0685424949238Z" style="stroke: rgb(22, 22, 22); stroke-width: 0.25; fill: rgb(243, 243, 243); stroke-dasharray: 2, 2; stroke-linejoin: round;"/><path d="M1348.8999999999999,100L1348.8999999999999,230.5L1292.331457505076,286.5685424949238L1292.331457505076,156.0685424949238Z" style="stroke: rgb(240, 52, 52); stroke-width: 1.09953; fill: rgb(243, 243, 243); stroke-dasharray: none; stroke-linejoin: round;"/><path d="M1352.05,100L1352.05,230.5L1295.4814575050762,286.5685424949238L1295.4814575050762,156.0685424949238Z" style="stroke: rgb(22, 22, 22); stroke-width: 0.25; fill: rgb(243, 243, 243); stroke-dasharray: 2, 2; stroke-linejoin: round;"/><path d="M1355.2,100L1355.2,230.5L1298.6314575050762,286.5685424949238L1298.6314575050762,156.0685424949238Z" style="stroke: rgb(22, 22, 22); stroke-width: 0.25; fill: rgb(243, 243, 243); stroke-dasharray: 2, 2; stroke-linejoin: round;"/><text x="70" y="60" style="fill: black; font-size: 14px; font-weight: bold;">Peak: Ama Dablam</text></svg>